# xmcd
#
# Track frame offsets:
# 150
# 14577
# 28193
# 43530
# 54980
# 68721
# 80941
# 93547
# 107458
# 125923
# 138823
# 156035
# 168583
# 183561
#
# Disc length: 2599 seconds
#
#
# Revision: 0
# Processed by: cddbd v1.4PL0 Copyright (c) Steve Scherf et al.
# Submitted via: FreeRIP 2.11 
#
DISCID=c00a250e
DTITLE=Vinnie Jones - Respect
DYEAR=2002
DGENRE=Blues
TTITLE0=Everybody needs somebody
TTITLE1=Dance to the music
TTITLE2=Bad, bad Leroy Brown
TTITLE3=Land of 1000 dances
TTITLE4=Do you love me?
TTITLE5=(Sittin' on)The dock of the bay
TTITLE6=Hi ho silver lining
TTITLE7=Shake a tail feather
TTITLE8=Mustang Sally
TTITLE9=Gimmie sone lovin'
TTITLE10=Boom boom
TTITLE11=I got you (I feel good)
TTITLE12=Minnie the moocher
TTITLE13=In the midnight hour
EXTD=
EXTT0=
EXTT1=
EXTT2=
EXTT3=
EXTT4=
EXTT5=
EXTT6=
EXTT7=
EXTT8=
EXTT9=
EXTT10=
EXTT11=
EXTT12=
EXTT13=
PLAYORDER=
